<mxfile host="app.diagrams.net" agent="Mozilla/5.0 (Windows NT 10.0; Win64; x64) AppleWebKit/537.36 (KHTML, like Gecko) Chrome/136.0.0.0 Safari/537.36" version="27.1.0">
  <diagram name="Page-1" id="dinIM-TxOBplWaLNOyuO">
    <mxGraphModel dx="2276" dy="1851" grid="1" gridSize="10" guides="1" tooltips="1" connect="1" arrows="1" fold="1" page="1" pageScale="1" pageWidth="850" pageHeight="1100" math="0" shadow="0">
      <root>
        <mxCell id="0" />
        <mxCell id="1" parent="0" />
        <mxCell id="f-9qnYGmFiToQLek4DMe-1" value="book" style="whiteSpace=wrap;html=1;align=center;" vertex="1" parent="1">
          <mxGeometry x="460" y="-80" width="100" height="40" as="geometry" />
        </mxCell>
        <mxCell id="f-9qnYGmFiToQLek4DMe-3" value="" style="endArrow=none;html=1;rounded=0;exitX=0.75;exitY=0;exitDx=0;exitDy=0;entryX=0;entryY=1;entryDx=0;entryDy=0;" edge="1" parent="1" source="f-9qnYGmFiToQLek4DMe-1" target="f-9qnYGmFiToQLek4DMe-4">
          <mxGeometry relative="1" as="geometry">
            <mxPoint x="580" y="-170" as="sourcePoint" />
            <mxPoint x="740" y="-170" as="targetPoint" />
          </mxGeometry>
        </mxCell>
        <mxCell id="f-9qnYGmFiToQLek4DMe-4" value="b_id" style="ellipse;whiteSpace=wrap;html=1;align=center;fontStyle=4;" vertex="1" parent="1">
          <mxGeometry x="530" y="-170" width="100" height="40" as="geometry" />
        </mxCell>
        <mxCell id="f-9qnYGmFiToQLek4DMe-5" value="title" style="ellipse;whiteSpace=wrap;html=1;align=center;" vertex="1" parent="1">
          <mxGeometry x="590" y="-132" width="100" height="40" as="geometry" />
        </mxCell>
        <mxCell id="f-9qnYGmFiToQLek4DMe-6" value="isbn" style="ellipse;whiteSpace=wrap;html=1;align=center;" vertex="1" parent="1">
          <mxGeometry x="360" y="-170" width="100" height="40" as="geometry" />
        </mxCell>
        <mxCell id="f-9qnYGmFiToQLek4DMe-7" value="publisher" style="ellipse;whiteSpace=wrap;html=1;align=center;" vertex="1" parent="1">
          <mxGeometry x="460" y="10" width="100" height="40" as="geometry" />
        </mxCell>
        <mxCell id="f-9qnYGmFiToQLek4DMe-8" value="year" style="ellipse;whiteSpace=wrap;html=1;align=center;" vertex="1" parent="1">
          <mxGeometry x="350" y="-20" width="100" height="40" as="geometry" />
        </mxCell>
        <mxCell id="f-9qnYGmFiToQLek4DMe-9" value="edition" style="ellipse;shape=doubleEllipse;margin=3;whiteSpace=wrap;html=1;align=center;" vertex="1" parent="1">
          <mxGeometry x="590" width="100" height="40" as="geometry" />
        </mxCell>
        <mxCell id="f-9qnYGmFiToQLek4DMe-10" value="" style="endArrow=none;html=1;rounded=0;exitX=0;exitY=1;exitDx=0;exitDy=0;entryX=1;entryY=0;entryDx=0;entryDy=0;" edge="1" parent="1" source="f-9qnYGmFiToQLek4DMe-1" target="f-9qnYGmFiToQLek4DMe-8">
          <mxGeometry relative="1" as="geometry">
            <mxPoint x="580" y="-34" as="sourcePoint" />
            <mxPoint x="675" y="-90" as="targetPoint" />
          </mxGeometry>
        </mxCell>
        <mxCell id="f-9qnYGmFiToQLek4DMe-11" value="" style="endArrow=none;html=1;rounded=0;exitX=0;exitY=0;exitDx=0;exitDy=0;entryX=1;entryY=1;entryDx=0;entryDy=0;" edge="1" parent="1" source="f-9qnYGmFiToQLek4DMe-9" target="f-9qnYGmFiToQLek4DMe-1">
          <mxGeometry relative="1" as="geometry">
            <mxPoint x="570" y="66" as="sourcePoint" />
            <mxPoint x="665" y="10" as="targetPoint" />
          </mxGeometry>
        </mxCell>
        <mxCell id="f-9qnYGmFiToQLek4DMe-12" value="" style="endArrow=none;html=1;rounded=0;entryX=0.5;entryY=1;entryDx=0;entryDy=0;exitX=0.5;exitY=0;exitDx=0;exitDy=0;" edge="1" parent="1" source="f-9qnYGmFiToQLek4DMe-7" target="f-9qnYGmFiToQLek4DMe-1">
          <mxGeometry relative="1" as="geometry">
            <mxPoint x="540" y="30" as="sourcePoint" />
            <mxPoint x="605" as="targetPoint" />
          </mxGeometry>
        </mxCell>
        <mxCell id="f-9qnYGmFiToQLek4DMe-13" value="" style="endArrow=none;html=1;rounded=0;exitX=1;exitY=1;exitDx=0;exitDy=0;entryX=0.25;entryY=0;entryDx=0;entryDy=0;" edge="1" parent="1" source="f-9qnYGmFiToQLek4DMe-6" target="f-9qnYGmFiToQLek4DMe-1">
          <mxGeometry relative="1" as="geometry">
            <mxPoint x="500" y="-64" as="sourcePoint" />
            <mxPoint x="595" y="-120" as="targetPoint" />
          </mxGeometry>
        </mxCell>
        <mxCell id="f-9qnYGmFiToQLek4DMe-14" value="" style="endArrow=none;html=1;rounded=0;exitX=1;exitY=0;exitDx=0;exitDy=0;entryX=0;entryY=0.5;entryDx=0;entryDy=0;" edge="1" parent="1" source="f-9qnYGmFiToQLek4DMe-1" target="f-9qnYGmFiToQLek4DMe-5">
          <mxGeometry relative="1" as="geometry">
            <mxPoint x="590" y="-24" as="sourcePoint" />
            <mxPoint x="685" y="-80" as="targetPoint" />
          </mxGeometry>
        </mxCell>
        <mxCell id="f-9qnYGmFiToQLek4DMe-15" value="member" style="whiteSpace=wrap;html=1;align=center;" vertex="1" parent="1">
          <mxGeometry x="880" y="-370" width="100" height="40" as="geometry" />
        </mxCell>
        <mxCell id="f-9qnYGmFiToQLek4DMe-16" value="" style="endArrow=none;html=1;rounded=0;exitX=1;exitY=0;exitDx=0;exitDy=0;entryX=0;entryY=1;entryDx=0;entryDy=0;" edge="1" parent="1" source="f-9qnYGmFiToQLek4DMe-15" target="f-9qnYGmFiToQLek4DMe-17">
          <mxGeometry relative="1" as="geometry">
            <mxPoint x="980" y="-490" as="sourcePoint" />
            <mxPoint x="1140" y="-490" as="targetPoint" />
          </mxGeometry>
        </mxCell>
        <mxCell id="f-9qnYGmFiToQLek4DMe-17" value="mem_id" style="ellipse;whiteSpace=wrap;html=1;align=center;fontStyle=4;" vertex="1" parent="1">
          <mxGeometry x="990" y="-500" width="100" height="40" as="geometry" />
        </mxCell>
        <mxCell id="f-9qnYGmFiToQLek4DMe-18" value="email" style="ellipse;whiteSpace=wrap;html=1;align=center;" vertex="1" parent="1">
          <mxGeometry x="1050" y="-450" width="100" height="40" as="geometry" />
        </mxCell>
        <mxCell id="f-9qnYGmFiToQLek4DMe-19" value="name" style="ellipse;whiteSpace=wrap;html=1;align=center;" vertex="1" parent="1">
          <mxGeometry x="860" y="-490" width="100" height="40" as="geometry" />
        </mxCell>
        <mxCell id="f-9qnYGmFiToQLek4DMe-20" value="address" style="ellipse;whiteSpace=wrap;html=1;align=center;" vertex="1" parent="1">
          <mxGeometry x="770" y="-310" width="100" height="40" as="geometry" />
        </mxCell>
        <mxCell id="f-9qnYGmFiToQLek4DMe-21" value="phone" style="ellipse;whiteSpace=wrap;html=1;align=center;" vertex="1" parent="1">
          <mxGeometry x="1010" y="-330" width="100" height="40" as="geometry" />
        </mxCell>
        <mxCell id="f-9qnYGmFiToQLek4DMe-23" value="" style="endArrow=none;html=1;rounded=0;exitX=1;exitY=1;exitDx=0;exitDy=0;entryX=0;entryY=0.5;entryDx=0;entryDy=0;" edge="1" parent="1" source="f-9qnYGmFiToQLek4DMe-15" target="f-9qnYGmFiToQLek4DMe-21">
          <mxGeometry relative="1" as="geometry">
            <mxPoint x="980" y="-354" as="sourcePoint" />
            <mxPoint x="1075" y="-410" as="targetPoint" />
          </mxGeometry>
        </mxCell>
        <mxCell id="f-9qnYGmFiToQLek4DMe-25" value="" style="endArrow=none;html=1;rounded=0;entryX=0;entryY=1;entryDx=0;entryDy=0;exitX=1;exitY=0;exitDx=0;exitDy=0;" edge="1" parent="1" source="f-9qnYGmFiToQLek4DMe-20" target="f-9qnYGmFiToQLek4DMe-15">
          <mxGeometry relative="1" as="geometry">
            <mxPoint x="940" y="-290" as="sourcePoint" />
            <mxPoint x="1005" y="-320" as="targetPoint" />
          </mxGeometry>
        </mxCell>
        <mxCell id="f-9qnYGmFiToQLek4DMe-26" value="" style="endArrow=none;html=1;rounded=0;exitX=0.5;exitY=1;exitDx=0;exitDy=0;entryX=0.5;entryY=0;entryDx=0;entryDy=0;" edge="1" parent="1" source="f-9qnYGmFiToQLek4DMe-19" target="f-9qnYGmFiToQLek4DMe-15">
          <mxGeometry relative="1" as="geometry">
            <mxPoint x="900" y="-384" as="sourcePoint" />
            <mxPoint x="995" y="-440" as="targetPoint" />
          </mxGeometry>
        </mxCell>
        <mxCell id="f-9qnYGmFiToQLek4DMe-27" value="" style="endArrow=none;html=1;rounded=0;exitX=1;exitY=0;exitDx=0;exitDy=0;entryX=0;entryY=0.5;entryDx=0;entryDy=0;" edge="1" parent="1" source="f-9qnYGmFiToQLek4DMe-15" target="f-9qnYGmFiToQLek4DMe-18">
          <mxGeometry relative="1" as="geometry">
            <mxPoint x="990" y="-344" as="sourcePoint" />
            <mxPoint x="1085" y="-400" as="targetPoint" />
          </mxGeometry>
        </mxCell>
        <mxCell id="f-9qnYGmFiToQLek4DMe-28" value="staff" style="whiteSpace=wrap;html=1;align=center;" vertex="1" parent="1">
          <mxGeometry x="40" y="-370" width="100" height="40" as="geometry" />
        </mxCell>
        <mxCell id="f-9qnYGmFiToQLek4DMe-29" value="" style="endArrow=none;html=1;rounded=0;exitX=1;exitY=0;exitDx=0;exitDy=0;entryX=0;entryY=1;entryDx=0;entryDy=0;" edge="1" parent="1" source="f-9qnYGmFiToQLek4DMe-28" target="f-9qnYGmFiToQLek4DMe-30">
          <mxGeometry relative="1" as="geometry">
            <mxPoint x="160" y="-460" as="sourcePoint" />
            <mxPoint x="164.64466094067257" y="-445.85786437626894" as="targetPoint" />
          </mxGeometry>
        </mxCell>
        <mxCell id="f-9qnYGmFiToQLek4DMe-30" value="staff_id" style="ellipse;whiteSpace=wrap;html=1;align=center;fontStyle=4;" vertex="1" parent="1">
          <mxGeometry x="200" y="-380" width="100" height="40" as="geometry" />
        </mxCell>
        <mxCell id="f-9qnYGmFiToQLek4DMe-31" value="role" style="ellipse;whiteSpace=wrap;html=1;align=center;" vertex="1" parent="1">
          <mxGeometry x="210" y="-440" width="100" height="40" as="geometry" />
        </mxCell>
        <mxCell id="f-9qnYGmFiToQLek4DMe-32" value="name" style="ellipse;whiteSpace=wrap;html=1;align=center;" vertex="1" parent="1">
          <mxGeometry x="-60" y="-440" width="100" height="40" as="geometry" />
        </mxCell>
        <mxCell id="f-9qnYGmFiToQLek4DMe-33" value="phone" style="ellipse;whiteSpace=wrap;html=1;align=center;" vertex="1" parent="1">
          <mxGeometry x="40" y="-250" width="100" height="40" as="geometry" />
        </mxCell>
        <mxCell id="f-9qnYGmFiToQLek4DMe-34" value="email" style="ellipse;whiteSpace=wrap;html=1;align=center;" vertex="1" parent="1">
          <mxGeometry x="180" y="-320" width="100" height="40" as="geometry" />
        </mxCell>
        <mxCell id="f-9qnYGmFiToQLek4DMe-36" value="" style="endArrow=none;html=1;rounded=0;exitX=1;exitY=1;exitDx=0;exitDy=0;entryX=0;entryY=0.5;entryDx=0;entryDy=0;" edge="1" parent="1" source="f-9qnYGmFiToQLek4DMe-28" target="f-9qnYGmFiToQLek4DMe-34">
          <mxGeometry relative="1" as="geometry">
            <mxPoint x="160" y="-324" as="sourcePoint" />
            <mxPoint x="255" y="-380" as="targetPoint" />
          </mxGeometry>
        </mxCell>
        <mxCell id="f-9qnYGmFiToQLek4DMe-38" value="" style="endArrow=none;html=1;rounded=0;entryX=0.5;entryY=1;entryDx=0;entryDy=0;exitX=0.5;exitY=0;exitDx=0;exitDy=0;" edge="1" parent="1" source="f-9qnYGmFiToQLek4DMe-33" target="f-9qnYGmFiToQLek4DMe-28">
          <mxGeometry relative="1" as="geometry">
            <mxPoint x="120" y="-260" as="sourcePoint" />
            <mxPoint x="185" y="-290" as="targetPoint" />
          </mxGeometry>
        </mxCell>
        <mxCell id="f-9qnYGmFiToQLek4DMe-39" value="" style="endArrow=none;html=1;rounded=0;exitX=1;exitY=1;exitDx=0;exitDy=0;entryX=0;entryY=0;entryDx=0;entryDy=0;" edge="1" parent="1" source="f-9qnYGmFiToQLek4DMe-32" target="f-9qnYGmFiToQLek4DMe-28">
          <mxGeometry relative="1" as="geometry">
            <mxPoint x="80" y="-354" as="sourcePoint" />
            <mxPoint x="175" y="-410" as="targetPoint" />
          </mxGeometry>
        </mxCell>
        <mxCell id="f-9qnYGmFiToQLek4DMe-40" value="" style="endArrow=none;html=1;rounded=0;exitX=1;exitY=0;exitDx=0;exitDy=0;entryX=0;entryY=0.5;entryDx=0;entryDy=0;" edge="1" parent="1" source="f-9qnYGmFiToQLek4DMe-28" target="f-9qnYGmFiToQLek4DMe-31">
          <mxGeometry relative="1" as="geometry">
            <mxPoint x="170" y="-314" as="sourcePoint" />
            <mxPoint x="190" y="-400" as="targetPoint" />
          </mxGeometry>
        </mxCell>
        <mxCell id="f-9qnYGmFiToQLek4DMe-41" value="borrowing" style="whiteSpace=wrap;html=1;align=center;" vertex="1" parent="1">
          <mxGeometry x="880" y="-80" width="100" height="40" as="geometry" />
        </mxCell>
        <mxCell id="f-9qnYGmFiToQLek4DMe-42" value="" style="endArrow=none;html=1;rounded=0;exitX=1;exitY=0;exitDx=0;exitDy=0;entryX=0;entryY=1;entryDx=0;entryDy=0;" edge="1" parent="1" source="f-9qnYGmFiToQLek4DMe-41" target="f-9qnYGmFiToQLek4DMe-43">
          <mxGeometry relative="1" as="geometry">
            <mxPoint x="1010" y="-170" as="sourcePoint" />
            <mxPoint x="1170" y="-170" as="targetPoint" />
          </mxGeometry>
        </mxCell>
        <mxCell id="f-9qnYGmFiToQLek4DMe-43" value="borrow_id" style="ellipse;whiteSpace=wrap;html=1;align=center;fontStyle=4;" vertex="1" parent="1">
          <mxGeometry x="1020" y="-180" width="100" height="40" as="geometry" />
        </mxCell>
        <mxCell id="f-9qnYGmFiToQLek4DMe-44" value="borrow_date" style="ellipse;whiteSpace=wrap;html=1;align=center;" vertex="1" parent="1">
          <mxGeometry x="1080" y="-130" width="100" height="40" as="geometry" />
        </mxCell>
        <mxCell id="f-9qnYGmFiToQLek4DMe-45" value="fine" style="ellipse;whiteSpace=wrap;html=1;align=center;" vertex="1" parent="1">
          <mxGeometry x="800" y="-170" width="100" height="40" as="geometry" />
        </mxCell>
        <mxCell id="f-9qnYGmFiToQLek4DMe-46" value="return_date" style="ellipse;whiteSpace=wrap;html=1;align=center;" vertex="1" parent="1">
          <mxGeometry x="960" y="10" width="100" height="40" as="geometry" />
        </mxCell>
        <mxCell id="f-9qnYGmFiToQLek4DMe-47" value="due_date" style="ellipse;whiteSpace=wrap;html=1;align=center;" vertex="1" parent="1">
          <mxGeometry x="1070" y="-40" width="100" height="40" as="geometry" />
        </mxCell>
        <mxCell id="f-9qnYGmFiToQLek4DMe-49" value="" style="endArrow=none;html=1;rounded=0;exitX=1;exitY=1;exitDx=0;exitDy=0;entryX=0;entryY=0.5;entryDx=0;entryDy=0;" edge="1" parent="1" source="f-9qnYGmFiToQLek4DMe-41" target="f-9qnYGmFiToQLek4DMe-47">
          <mxGeometry relative="1" as="geometry">
            <mxPoint x="1010" y="-34" as="sourcePoint" />
            <mxPoint x="1105" y="-90" as="targetPoint" />
          </mxGeometry>
        </mxCell>
        <mxCell id="f-9qnYGmFiToQLek4DMe-51" value="" style="endArrow=none;html=1;rounded=0;entryX=1;entryY=1;entryDx=0;entryDy=0;exitX=0.5;exitY=0;exitDx=0;exitDy=0;" edge="1" parent="1" source="f-9qnYGmFiToQLek4DMe-46" target="f-9qnYGmFiToQLek4DMe-41">
          <mxGeometry relative="1" as="geometry">
            <mxPoint x="970" y="30" as="sourcePoint" />
            <mxPoint x="1035" as="targetPoint" />
          </mxGeometry>
        </mxCell>
        <mxCell id="f-9qnYGmFiToQLek4DMe-52" value="" style="endArrow=none;html=1;rounded=0;exitX=0.5;exitY=1;exitDx=0;exitDy=0;entryX=0.25;entryY=0;entryDx=0;entryDy=0;" edge="1" parent="1" source="f-9qnYGmFiToQLek4DMe-45" target="f-9qnYGmFiToQLek4DMe-41">
          <mxGeometry relative="1" as="geometry">
            <mxPoint x="930" y="-64" as="sourcePoint" />
            <mxPoint x="1025" y="-120" as="targetPoint" />
          </mxGeometry>
        </mxCell>
        <mxCell id="f-9qnYGmFiToQLek4DMe-53" value="" style="endArrow=none;html=1;rounded=0;exitX=1;exitY=0;exitDx=0;exitDy=0;entryX=0;entryY=0.5;entryDx=0;entryDy=0;" edge="1" parent="1" source="f-9qnYGmFiToQLek4DMe-41" target="f-9qnYGmFiToQLek4DMe-44">
          <mxGeometry relative="1" as="geometry">
            <mxPoint x="1020" y="-24" as="sourcePoint" />
            <mxPoint x="1115" y="-80" as="targetPoint" />
          </mxGeometry>
        </mxCell>
        <mxCell id="f-9qnYGmFiToQLek4DMe-56" value="" style="endArrow=none;html=1;rounded=0;exitX=0.75;exitY=0;exitDx=0;exitDy=0;entryX=0;entryY=1;entryDx=0;entryDy=0;" edge="1" parent="1" source="f-9qnYGmFiToQLek4DMe-122" target="f-9qnYGmFiToQLek4DMe-57">
          <mxGeometry relative="1" as="geometry">
            <mxPoint x="990" y="200" as="sourcePoint" />
            <mxPoint x="1070" y="95" as="targetPoint" />
          </mxGeometry>
        </mxCell>
        <mxCell id="f-9qnYGmFiToQLek4DMe-57" value="username" style="ellipse;whiteSpace=wrap;html=1;align=center;fontStyle=0;" vertex="1" parent="1">
          <mxGeometry x="980" y="95" width="100" height="40" as="geometry" />
        </mxCell>
        <mxCell id="f-9qnYGmFiToQLek4DMe-58" value="password" style="ellipse;whiteSpace=wrap;html=1;align=center;" vertex="1" parent="1">
          <mxGeometry x="1020" y="145" width="100" height="40" as="geometry" />
        </mxCell>
        <mxCell id="f-9qnYGmFiToQLek4DMe-59" value="user_id" style="ellipse;whiteSpace=wrap;html=1;align=center;fontStyle=4" vertex="1" parent="1">
          <mxGeometry x="810" y="120" width="100" height="40" as="geometry" />
        </mxCell>
        <mxCell id="f-9qnYGmFiToQLek4DMe-61" value="role" style="ellipse;whiteSpace=wrap;html=1;align=center;" vertex="1" parent="1">
          <mxGeometry x="1010" y="260" width="100" height="40" as="geometry" />
        </mxCell>
        <mxCell id="f-9qnYGmFiToQLek4DMe-62" value="" style="endArrow=none;html=1;rounded=0;entryX=0;entryY=0.5;entryDx=0;entryDy=0;exitX=1;exitY=1;exitDx=0;exitDy=0;" edge="1" parent="1" source="f-9qnYGmFiToQLek4DMe-122" target="f-9qnYGmFiToQLek4DMe-61">
          <mxGeometry relative="1" as="geometry">
            <mxPoint x="980" y="260" as="sourcePoint" />
            <mxPoint x="1005" y="175" as="targetPoint" />
          </mxGeometry>
        </mxCell>
        <mxCell id="f-9qnYGmFiToQLek4DMe-64" value="" style="endArrow=none;html=1;rounded=0;exitX=0.5;exitY=1;exitDx=0;exitDy=0;entryX=0;entryY=0;entryDx=0;entryDy=0;" edge="1" parent="1" source="f-9qnYGmFiToQLek4DMe-59" target="f-9qnYGmFiToQLek4DMe-122">
          <mxGeometry relative="1" as="geometry">
            <mxPoint x="830" y="201" as="sourcePoint" />
            <mxPoint x="890" y="200" as="targetPoint" />
          </mxGeometry>
        </mxCell>
        <mxCell id="f-9qnYGmFiToQLek4DMe-65" value="" style="endArrow=none;html=1;rounded=0;exitX=1;exitY=0;exitDx=0;exitDy=0;entryX=0;entryY=0.5;entryDx=0;entryDy=0;" edge="1" parent="1" source="f-9qnYGmFiToQLek4DMe-122" target="f-9qnYGmFiToQLek4DMe-58">
          <mxGeometry relative="1" as="geometry">
            <mxPoint x="990" y="200" as="sourcePoint" />
            <mxPoint x="1015" y="185" as="targetPoint" />
          </mxGeometry>
        </mxCell>
        <mxCell id="f-9qnYGmFiToQLek4DMe-66" value="author" style="whiteSpace=wrap;html=1;align=center;" vertex="1" parent="1">
          <mxGeometry x="50" y="-80" width="100" height="40" as="geometry" />
        </mxCell>
        <mxCell id="f-9qnYGmFiToQLek4DMe-67" value="" style="endArrow=none;html=1;rounded=0;exitX=0;exitY=1;exitDx=0;exitDy=0;entryX=1;entryY=0;entryDx=0;entryDy=0;" edge="1" parent="1" source="f-9qnYGmFiToQLek4DMe-66" target="f-9qnYGmFiToQLek4DMe-68">
          <mxGeometry relative="1" as="geometry">
            <mxPoint x="230" y="-170" as="sourcePoint" />
            <mxPoint x="390" y="-170" as="targetPoint" />
          </mxGeometry>
        </mxCell>
        <mxCell id="f-9qnYGmFiToQLek4DMe-68" value="name" style="ellipse;whiteSpace=wrap;html=1;align=center;fontStyle=0;" vertex="1" parent="1">
          <mxGeometry x="-60" y="-20" width="100" height="40" as="geometry" />
        </mxCell>
        <mxCell id="f-9qnYGmFiToQLek4DMe-70" value="author_id" style="ellipse;whiteSpace=wrap;html=1;align=center;fontStyle=4" vertex="1" parent="1">
          <mxGeometry x="-60" y="-140" width="100" height="40" as="geometry" />
        </mxCell>
        <mxCell id="f-9qnYGmFiToQLek4DMe-73" value="" style="endArrow=none;html=1;rounded=0;exitX=1;exitY=1;exitDx=0;exitDy=0;entryX=0;entryY=0;entryDx=0;entryDy=0;" edge="1" parent="1" source="f-9qnYGmFiToQLek4DMe-70" target="f-9qnYGmFiToQLek4DMe-66">
          <mxGeometry relative="1" as="geometry">
            <mxPoint x="150" y="-64" as="sourcePoint" />
            <mxPoint x="245" y="-120" as="targetPoint" />
          </mxGeometry>
        </mxCell>
        <mxCell id="f-9qnYGmFiToQLek4DMe-76" value="reversation" style="whiteSpace=wrap;html=1;align=center;" vertex="1" parent="1">
          <mxGeometry x="460" y="-370" width="100" height="40" as="geometry" />
        </mxCell>
        <mxCell id="f-9qnYGmFiToQLek4DMe-77" value="" style="endArrow=none;html=1;rounded=0;exitX=1;exitY=0;exitDx=0;exitDy=0;entryX=0;entryY=1;entryDx=0;entryDy=0;" edge="1" parent="1" source="f-9qnYGmFiToQLek4DMe-76" target="f-9qnYGmFiToQLek4DMe-78">
          <mxGeometry relative="1" as="geometry">
            <mxPoint x="570" y="-470" as="sourcePoint" />
            <mxPoint x="730" y="-470" as="targetPoint" />
          </mxGeometry>
        </mxCell>
        <mxCell id="f-9qnYGmFiToQLek4DMe-78" value="res_Date" style="ellipse;whiteSpace=wrap;html=1;align=center;fontStyle=0;" vertex="1" parent="1">
          <mxGeometry x="570" y="-420" width="100" height="40" as="geometry" />
        </mxCell>
        <mxCell id="f-9qnYGmFiToQLek4DMe-79" value="res_id" style="ellipse;whiteSpace=wrap;html=1;align=center;fontStyle=4" vertex="1" parent="1">
          <mxGeometry x="350" y="-420" width="100" height="40" as="geometry" />
        </mxCell>
        <mxCell id="f-9qnYGmFiToQLek4DMe-80" value="" style="endArrow=none;html=1;rounded=0;exitX=1;exitY=1;exitDx=0;exitDy=0;entryX=0;entryY=0;entryDx=0;entryDy=0;" edge="1" parent="1" source="f-9qnYGmFiToQLek4DMe-79" target="f-9qnYGmFiToQLek4DMe-76">
          <mxGeometry relative="1" as="geometry">
            <mxPoint x="490" y="-364" as="sourcePoint" />
            <mxPoint x="585" y="-420" as="targetPoint" />
          </mxGeometry>
        </mxCell>
        <mxCell id="f-9qnYGmFiToQLek4DMe-81" value="&lt;h3 data-end=&quot;146&quot; data-start=&quot;109&quot;&gt;🔗 &lt;strong data-end=&quot;146&quot; data-start=&quot;116&quot;&gt;Relationship Summary Table&lt;/strong&gt;&lt;/h3&gt;&lt;br&gt;&lt;div class=&quot;_tableContainer_16hzy_1&quot;&gt;&lt;div class=&quot;_tableWrapper_16hzy_14 group flex w-fit flex-col-reverse&quot; tabindex=&quot;-1&quot;&gt;&lt;table class=&quot;w-fit min-w-(--thread-content-width)&quot; data-end=&quot;1415&quot; data-start=&quot;148&quot;&gt;&lt;thead data-end=&quot;250&quot; data-start=&quot;148&quot;&gt;&lt;tr data-end=&quot;250&quot; data-start=&quot;148&quot;&gt;&lt;th data-col-size=&quot;sm&quot; data-end=&quot;166&quot; data-start=&quot;148&quot;&gt;&lt;strong data-end=&quot;165&quot; data-start=&quot;150&quot;&gt;From Entity&lt;/strong&gt;&lt;/th&gt;&lt;th data-col-size=&quot;sm&quot; data-end=&quot;184&quot; data-start=&quot;166&quot;&gt;&lt;strong data-end=&quot;181&quot; data-start=&quot;168&quot;&gt;To Entity&lt;/strong&gt;&lt;/th&gt;&lt;th data-col-size=&quot;sm&quot; data-end=&quot;195&quot; data-start=&quot;184&quot;&gt;&lt;strong data-end=&quot;194&quot; data-start=&quot;186&quot;&gt;Type&lt;/strong&gt;&lt;/th&gt;&lt;th data-col-size=&quot;md&quot; data-end=&quot;250&quot; data-start=&quot;195&quot;&gt;&lt;strong data-end=&quot;206&quot; data-start=&quot;197&quot;&gt;Notes&lt;/strong&gt;&lt;/th&gt;&lt;/tr&gt;&lt;/thead&gt;&lt;tbody data-end=&quot;1415&quot; data-start=&quot;356&quot;&gt;&lt;tr data-end=&quot;461&quot; data-start=&quot;356&quot;&gt;&lt;td data-col-size=&quot;sm&quot; data-end=&quot;374&quot; data-start=&quot;356&quot;&gt;&lt;/td&gt;&lt;td data-end=&quot;394&quot; data-start=&quot;374&quot; data-col-size=&quot;sm&quot;&gt;&lt;/td&gt;&lt;td data-end=&quot;405&quot; data-start=&quot;394&quot; data-col-size=&quot;sm&quot;&gt;&lt;/td&gt;&lt;td data-end=&quot;461&quot; data-start=&quot;405&quot; data-col-size=&quot;md&quot;&gt;&lt;br&gt;&lt;/td&gt;&lt;/tr&gt;&lt;tr data-end=&quot;779&quot; data-start=&quot;674&quot;&gt;&lt;td data-col-size=&quot;sm&quot; data-end=&quot;692&quot; data-start=&quot;674&quot;&gt;&lt;br&gt;&lt;/td&gt;&lt;td data-end=&quot;712&quot; data-start=&quot;692&quot; data-col-size=&quot;sm&quot;&gt;&lt;/td&gt;&lt;td data-end=&quot;723&quot; data-start=&quot;712&quot; data-col-size=&quot;sm&quot;&gt;&lt;/td&gt;&lt;td data-end=&quot;779&quot; data-start=&quot;723&quot; data-col-size=&quot;md&quot;&gt;&lt;br&gt;&lt;/td&gt;&lt;/tr&gt;&lt;tr data-end=&quot;885&quot; data-start=&quot;780&quot;&gt;&lt;td data-col-size=&quot;sm&quot; data-end=&quot;798&quot; data-start=&quot;780&quot;&gt;&lt;br&gt;&lt;/td&gt;&lt;td data-end=&quot;818&quot; data-start=&quot;798&quot; data-col-size=&quot;sm&quot;&gt;&lt;/td&gt;&lt;td data-end=&quot;829&quot; data-start=&quot;818&quot; data-col-size=&quot;sm&quot;&gt;&lt;/td&gt;&lt;td data-end=&quot;885&quot; data-start=&quot;829&quot; data-col-size=&quot;md&quot;&gt;&lt;br&gt;&lt;/td&gt;&lt;/tr&gt;&lt;tr data-end=&quot;991&quot; data-start=&quot;886&quot;&gt;&lt;td data-col-size=&quot;sm&quot; data-end=&quot;904&quot; data-start=&quot;886&quot;&gt;&lt;strong data-end=&quot;898&quot; data-start=&quot;888&quot;&gt;Member&lt;/strong&gt;&lt;/td&gt;&lt;td data-end=&quot;924&quot; data-start=&quot;904&quot; data-col-size=&quot;sm&quot;&gt;Reservation&lt;/td&gt;&lt;td data-end=&quot;935&quot; data-start=&quot;924&quot; data-col-size=&quot;sm&quot;&gt;1:M&lt;/td&gt;&lt;td data-end=&quot;991&quot; data-start=&quot;935&quot; data-col-size=&quot;md&quot;&gt;A member can make multiple reservations&lt;/td&gt;&lt;/tr&gt;&lt;tr data-end=&quot;1097&quot; data-start=&quot;992&quot;&gt;&lt;td data-col-size=&quot;sm&quot; data-end=&quot;1010&quot; data-start=&quot;992&quot;&gt;&lt;strong data-end=&quot;1004&quot; data-start=&quot;994&quot;&gt;Member&lt;/strong&gt;&lt;/td&gt;&lt;td data-end=&quot;1030&quot; data-start=&quot;1010&quot; data-col-size=&quot;sm&quot;&gt;Login&lt;/td&gt;&lt;td data-end=&quot;1041&quot; data-start=&quot;1030&quot; data-col-size=&quot;sm&quot;&gt;1:1&lt;/td&gt;&lt;td data-end=&quot;1097&quot; data-start=&quot;1041&quot; data-col-size=&quot;md&quot;&gt;One login per member&lt;/td&gt;&lt;/tr&gt;&lt;tr data-end=&quot;1203&quot; data-start=&quot;1098&quot;&gt;&lt;td data-col-size=&quot;sm&quot; data-end=&quot;1116&quot; data-start=&quot;1098&quot;&gt;&lt;strong data-end=&quot;1109&quot; data-start=&quot;1100&quot;&gt;Staff&lt;/strong&gt;&lt;/td&gt;&lt;td data-end=&quot;1136&quot; data-start=&quot;1116&quot; data-col-size=&quot;sm&quot;&gt;Borrowing&lt;/td&gt;&lt;td data-end=&quot;1147&quot; data-start=&quot;1136&quot; data-col-size=&quot;sm&quot;&gt;1:M&lt;/td&gt;&lt;td data-end=&quot;1203&quot; data-start=&quot;1147&quot; data-col-size=&quot;md&quot;&gt;Staff manages many borrowings (as HandledBy)&lt;/td&gt;&lt;/tr&gt;&lt;tr data-end=&quot;1309&quot; data-start=&quot;1204&quot;&gt;&lt;td data-col-size=&quot;sm&quot; data-end=&quot;1222&quot; data-start=&quot;1204&quot;&gt;&lt;strong data-end=&quot;1215&quot; data-start=&quot;1206&quot;&gt;Staff&lt;/strong&gt;&lt;/td&gt;&lt;td data-end=&quot;1242&quot; data-start=&quot;1222&quot; data-col-size=&quot;sm&quot;&gt;Reservation&lt;/td&gt;&lt;td data-end=&quot;1253&quot; data-start=&quot;1242&quot; data-col-size=&quot;sm&quot;&gt;1:M&lt;/td&gt;&lt;td data-end=&quot;1309&quot; data-start=&quot;1253&quot; data-col-size=&quot;md&quot;&gt;Staff manages many reservations (as HandledBy)&lt;/td&gt;&lt;/tr&gt;&lt;tr data-end=&quot;1415&quot; data-start=&quot;1310&quot;&gt;&lt;td data-col-size=&quot;sm&quot; data-end=&quot;1328&quot; data-start=&quot;1310&quot;&gt;&lt;strong data-end=&quot;1321&quot; data-start=&quot;1312&quot;&gt;Staff&lt;/strong&gt;&lt;/td&gt;&lt;td data-end=&quot;1348&quot; data-start=&quot;1328&quot; data-col-size=&quot;sm&quot;&gt;Login&lt;/td&gt;&lt;td data-end=&quot;1359&quot; data-start=&quot;1348&quot; data-col-size=&quot;sm&quot;&gt;1:1&lt;/td&gt;&lt;td data-end=&quot;1415&quot; data-start=&quot;1359&quot; data-col-size=&quot;md&quot;&gt;One login per staff&lt;/td&gt;&lt;/tr&gt;&lt;/tbody&gt;&lt;/table&gt;&lt;/div&gt;&lt;/div&gt;" style="text;html=1;align=center;verticalAlign=middle;resizable=0;points=[];autosize=1;strokeColor=none;fillColor=none;" vertex="1" parent="1">
          <mxGeometry x="650" y="360" width="490" height="240" as="geometry" />
        </mxCell>
        <mxCell id="f-9qnYGmFiToQLek4DMe-82" value="writes" style="shape=rhombus;perimeter=rhombusPerimeter;whiteSpace=wrap;html=1;align=center;" vertex="1" parent="1">
          <mxGeometry x="270" y="-90" width="120" height="60" as="geometry" />
        </mxCell>
        <mxCell id="f-9qnYGmFiToQLek4DMe-83" value="" style="endArrow=none;html=1;rounded=0;exitX=1;exitY=0.5;exitDx=0;exitDy=0;entryX=0;entryY=0.5;entryDx=0;entryDy=0;startArrow=ERoneToMany;startFill=0;" edge="1" parent="1" source="f-9qnYGmFiToQLek4DMe-66" target="f-9qnYGmFiToQLek4DMe-82">
          <mxGeometry relative="1" as="geometry">
            <mxPoint x="110" y="70" as="sourcePoint" />
            <mxPoint x="270" y="70" as="targetPoint" />
          </mxGeometry>
        </mxCell>
        <mxCell id="f-9qnYGmFiToQLek4DMe-85" value="" style="endArrow=ERoneToMany;html=1;rounded=0;exitX=1;exitY=0.5;exitDx=0;exitDy=0;endFill=0;entryX=0;entryY=0.5;entryDx=0;entryDy=0;" edge="1" parent="1" source="f-9qnYGmFiToQLek4DMe-82" target="f-9qnYGmFiToQLek4DMe-1">
          <mxGeometry relative="1" as="geometry">
            <mxPoint x="600" y="200" as="sourcePoint" />
            <mxPoint x="440" y="-60" as="targetPoint" />
          </mxGeometry>
        </mxCell>
        <mxCell id="f-9qnYGmFiToQLek4DMe-86" value="" style="endArrow=none;html=1;rounded=0;entryX=0;entryY=0.5;entryDx=0;entryDy=0;startArrow=ERmandOne;startFill=0;exitX=1;exitY=0.5;exitDx=0;exitDy=0;" edge="1" parent="1" source="f-9qnYGmFiToQLek4DMe-1" target="f-9qnYGmFiToQLek4DMe-87">
          <mxGeometry relative="1" as="geometry">
            <mxPoint x="580" y="-60" as="sourcePoint" />
            <mxPoint x="660" y="-51" as="targetPoint" />
          </mxGeometry>
        </mxCell>
        <mxCell id="f-9qnYGmFiToQLek4DMe-87" value="can be&lt;div&gt;borrowed&lt;/div&gt;" style="shape=rhombus;perimeter=rhombusPerimeter;whiteSpace=wrap;html=1;align=center;" vertex="1" parent="1">
          <mxGeometry x="670" y="-90" width="120" height="60" as="geometry" />
        </mxCell>
        <mxCell id="f-9qnYGmFiToQLek4DMe-88" value="" style="endArrow=ERoneToMany;html=1;rounded=0;exitX=1;exitY=0.5;exitDx=0;exitDy=0;entryX=0;entryY=0.5;entryDx=0;entryDy=0;endFill=0;" edge="1" parent="1" source="f-9qnYGmFiToQLek4DMe-87" target="f-9qnYGmFiToQLek4DMe-41">
          <mxGeometry relative="1" as="geometry">
            <mxPoint x="700" y="50" as="sourcePoint" />
            <mxPoint x="860" y="50" as="targetPoint" />
          </mxGeometry>
        </mxCell>
        <mxCell id="f-9qnYGmFiToQLek4DMe-89" value="can be&lt;div&gt;reserved&lt;/div&gt;" style="shape=rhombus;perimeter=rhombusPerimeter;whiteSpace=wrap;html=1;align=center;rotation=0;" vertex="1" parent="1">
          <mxGeometry x="450" y="-260" width="120" height="60" as="geometry" />
        </mxCell>
        <mxCell id="f-9qnYGmFiToQLek4DMe-90" value="" style="endArrow=none;html=1;rounded=0;entryX=0.5;entryY=1;entryDx=0;entryDy=0;startArrow=ERmandOne;startFill=0;exitX=0.5;exitY=0;exitDx=0;exitDy=0;" edge="1" parent="1" source="f-9qnYGmFiToQLek4DMe-1" target="f-9qnYGmFiToQLek4DMe-89">
          <mxGeometry relative="1" as="geometry">
            <mxPoint x="520" y="-150" as="sourcePoint" />
            <mxPoint x="630" y="-150" as="targetPoint" />
          </mxGeometry>
        </mxCell>
        <mxCell id="f-9qnYGmFiToQLek4DMe-92" value="" style="endArrow=ERoneToMany;html=1;rounded=0;exitX=0.5;exitY=0;exitDx=0;exitDy=0;entryX=0.5;entryY=1;entryDx=0;entryDy=0;endFill=0;" edge="1" parent="1" source="f-9qnYGmFiToQLek4DMe-89" target="f-9qnYGmFiToQLek4DMe-76">
          <mxGeometry relative="1" as="geometry">
            <mxPoint x="490" y="-290" as="sourcePoint" />
            <mxPoint x="590" y="-290" as="targetPoint" />
          </mxGeometry>
        </mxCell>
        <mxCell id="f-9qnYGmFiToQLek4DMe-93" value="" style="endArrow=none;html=1;rounded=0;startArrow=ERmandOne;startFill=0;exitX=0.5;exitY=1;exitDx=0;exitDy=0;entryX=0.5;entryY=0;entryDx=0;entryDy=0;" edge="1" parent="1" source="f-9qnYGmFiToQLek4DMe-15" target="f-9qnYGmFiToQLek4DMe-95">
          <mxGeometry relative="1" as="geometry">
            <mxPoint x="940" y="-50" as="sourcePoint" />
            <mxPoint x="930" y="-250" as="targetPoint" />
          </mxGeometry>
        </mxCell>
        <mxCell id="f-9qnYGmFiToQLek4DMe-94" value="" style="endArrow=ERoneToMany;html=1;rounded=0;entryX=0.5;entryY=0;entryDx=0;entryDy=0;endFill=0;exitX=0.5;exitY=1;exitDx=0;exitDy=0;" edge="1" parent="1" source="f-9qnYGmFiToQLek4DMe-95" target="f-9qnYGmFiToQLek4DMe-41">
          <mxGeometry relative="1" as="geometry">
            <mxPoint x="930" y="-160" as="sourcePoint" />
            <mxPoint x="1010" y="-170" as="targetPoint" />
          </mxGeometry>
        </mxCell>
        <mxCell id="f-9qnYGmFiToQLek4DMe-95" value="can&amp;nbsp;&lt;div&gt;borrow&lt;/div&gt;" style="shape=rhombus;perimeter=rhombusPerimeter;whiteSpace=wrap;html=1;align=center;" vertex="1" parent="1">
          <mxGeometry x="870" y="-240" width="120" height="60" as="geometry" />
        </mxCell>
        <mxCell id="f-9qnYGmFiToQLek4DMe-96" value="" style="endArrow=none;html=1;rounded=0;startArrow=ERmandOne;startFill=0;exitX=0;exitY=0.5;exitDx=0;exitDy=0;entryX=1;entryY=0.5;entryDx=0;entryDy=0;" edge="1" parent="1" source="f-9qnYGmFiToQLek4DMe-15" target="f-9qnYGmFiToQLek4DMe-98">
          <mxGeometry relative="1" as="geometry">
            <mxPoint x="800" y="-350" as="sourcePoint" />
            <mxPoint x="780" y="-350" as="targetPoint" />
          </mxGeometry>
        </mxCell>
        <mxCell id="f-9qnYGmFiToQLek4DMe-97" value="" style="endArrow=ERoneToMany;html=1;rounded=0;entryX=1;entryY=0.5;entryDx=0;entryDy=0;endFill=0;exitX=0;exitY=0.5;exitDx=0;exitDy=0;" edge="1" parent="1" source="f-9qnYGmFiToQLek4DMe-98" target="f-9qnYGmFiToQLek4DMe-76">
          <mxGeometry relative="1" as="geometry">
            <mxPoint x="640" y="-350" as="sourcePoint" />
            <mxPoint x="580" y="-250" as="targetPoint" />
          </mxGeometry>
        </mxCell>
        <mxCell id="f-9qnYGmFiToQLek4DMe-98" value="can&amp;nbsp;&lt;div&gt;reserve&lt;/div&gt;" style="shape=rhombus;perimeter=rhombusPerimeter;whiteSpace=wrap;html=1;align=center;fontStyle=0" vertex="1" parent="1">
          <mxGeometry x="650" y="-380" width="120" height="60" as="geometry" />
        </mxCell>
        <mxCell id="f-9qnYGmFiToQLek4DMe-99" value="&lt;div&gt;&lt;br&gt;&lt;/div&gt;can&amp;nbsp;&lt;div&gt;&lt;br&gt;&lt;/div&gt;" style="shape=rhombus;perimeter=rhombusPerimeter;whiteSpace=wrap;html=1;align=center;fontStyle=0" vertex="1" parent="1">
          <mxGeometry x="1260" y="-160" width="120" height="60" as="geometry" />
        </mxCell>
        <mxCell id="f-9qnYGmFiToQLek4DMe-100" value="" style="endArrow=none;html=1;rounded=0;startArrow=ERmandOne;startFill=0;exitX=1;exitY=0.5;exitDx=0;exitDy=0;entryX=0.5;entryY=0;entryDx=0;entryDy=0;" edge="1" parent="1" source="f-9qnYGmFiToQLek4DMe-15" target="f-9qnYGmFiToQLek4DMe-99">
          <mxGeometry relative="1" as="geometry">
            <mxPoint x="1390" y="-300" as="sourcePoint" />
            <mxPoint x="1280" y="-300" as="targetPoint" />
            <Array as="points">
              <mxPoint x="1320" y="-350" />
            </Array>
          </mxGeometry>
        </mxCell>
        <mxCell id="f-9qnYGmFiToQLek4DMe-101" value="" style="endArrow=none;html=1;rounded=0;startArrow=ERmandOne;startFill=0;exitX=1;exitY=0.5;exitDx=0;exitDy=0;entryX=0.5;entryY=1;entryDx=0;entryDy=0;" edge="1" parent="1" target="f-9qnYGmFiToQLek4DMe-99">
          <mxGeometry relative="1" as="geometry">
            <mxPoint x="990" y="220" as="sourcePoint" />
            <mxPoint x="1250" y="140" as="targetPoint" />
            <Array as="points">
              <mxPoint x="1320" y="220" />
            </Array>
          </mxGeometry>
        </mxCell>
        <mxCell id="f-9qnYGmFiToQLek4DMe-102" value="handled by" style="shape=rhombus;perimeter=rhombusPerimeter;whiteSpace=wrap;html=1;align=center;fontStyle=0" vertex="1" parent="1">
          <mxGeometry x="450" y="-540" width="120" height="60" as="geometry" />
        </mxCell>
        <mxCell id="f-9qnYGmFiToQLek4DMe-104" value="" style="endArrow=ERoneToMany;html=1;rounded=0;exitX=0.5;exitY=1;exitDx=0;exitDy=0;entryX=0.5;entryY=0;entryDx=0;entryDy=0;endFill=0;" edge="1" parent="1" source="f-9qnYGmFiToQLek4DMe-102" target="f-9qnYGmFiToQLek4DMe-76">
          <mxGeometry relative="1" as="geometry">
            <mxPoint x="500" y="-380" as="sourcePoint" />
            <mxPoint x="500" y="-450" as="targetPoint" />
          </mxGeometry>
        </mxCell>
        <mxCell id="f-9qnYGmFiToQLek4DMe-105" value="" style="endArrow=ERoneToMany;html=1;rounded=0;entryX=1;entryY=0.5;entryDx=0;entryDy=0;endFill=0;exitX=1;exitY=0.5;exitDx=0;exitDy=0;" edge="1" parent="1" source="f-9qnYGmFiToQLek4DMe-102" target="f-9qnYGmFiToQLek4DMe-41">
          <mxGeometry relative="1" as="geometry">
            <mxPoint x="1210" y="-580" as="sourcePoint" />
            <mxPoint x="1050" y="-80" as="targetPoint" />
            <Array as="points">
              <mxPoint x="1240" y="-510" />
              <mxPoint x="1240" y="-60" />
            </Array>
          </mxGeometry>
        </mxCell>
        <mxCell id="f-9qnYGmFiToQLek4DMe-106" value="" style="endArrow=none;html=1;rounded=0;startArrow=ERmandOne;startFill=0;exitX=0.5;exitY=0;exitDx=0;exitDy=0;entryX=0;entryY=0.5;entryDx=0;entryDy=0;" edge="1" parent="1" source="f-9qnYGmFiToQLek4DMe-28" target="f-9qnYGmFiToQLek4DMe-102">
          <mxGeometry relative="1" as="geometry">
            <mxPoint x="220" y="-520" as="sourcePoint" />
            <mxPoint x="90" y="-510" as="targetPoint" />
            <Array as="points">
              <mxPoint x="90" y="-510" />
            </Array>
          </mxGeometry>
        </mxCell>
        <mxCell id="f-9qnYGmFiToQLek4DMe-107" value="1" style="text;html=1;align=center;verticalAlign=middle;resizable=0;points=[];autosize=1;strokeColor=none;fillColor=none;" vertex="1" parent="1">
          <mxGeometry x="425" y="-542" width="30" height="30" as="geometry" />
        </mxCell>
        <mxCell id="f-9qnYGmFiToQLek4DMe-108" value="M" style="text;html=1;align=center;verticalAlign=middle;resizable=0;points=[];autosize=1;strokeColor=none;fillColor=none;" vertex="1" parent="1">
          <mxGeometry x="555" y="-542" width="30" height="30" as="geometry" />
        </mxCell>
        <mxCell id="f-9qnYGmFiToQLek4DMe-109" value="M" style="text;html=1;align=center;verticalAlign=middle;resizable=0;points=[];autosize=1;strokeColor=none;fillColor=none;" vertex="1" parent="1">
          <mxGeometry x="505" y="-482" width="30" height="30" as="geometry" />
        </mxCell>
        <mxCell id="f-9qnYGmFiToQLek4DMe-110" value="1" style="text;html=1;align=center;verticalAlign=middle;resizable=0;points=[];autosize=1;strokeColor=none;fillColor=none;" vertex="1" parent="1">
          <mxGeometry x="755" y="-382" width="30" height="30" as="geometry" />
        </mxCell>
        <mxCell id="f-9qnYGmFiToQLek4DMe-111" value="M" style="text;html=1;align=center;verticalAlign=middle;resizable=0;points=[];autosize=1;strokeColor=none;fillColor=none;" vertex="1" parent="1">
          <mxGeometry x="635" y="-382" width="30" height="30" as="geometry" />
        </mxCell>
        <mxCell id="f-9qnYGmFiToQLek4DMe-112" value="M" style="text;html=1;align=center;verticalAlign=middle;resizable=0;points=[];autosize=1;strokeColor=none;fillColor=none;" vertex="1" parent="1">
          <mxGeometry x="505" y="-282" width="30" height="30" as="geometry" />
        </mxCell>
        <mxCell id="f-9qnYGmFiToQLek4DMe-113" value="1" style="text;html=1;align=center;verticalAlign=middle;resizable=0;points=[];autosize=1;strokeColor=none;fillColor=none;" vertex="1" parent="1">
          <mxGeometry x="505" y="-210" width="30" height="30" as="geometry" />
        </mxCell>
        <mxCell id="f-9qnYGmFiToQLek4DMe-114" value="M" style="text;html=1;align=center;verticalAlign=middle;resizable=0;points=[];autosize=1;strokeColor=none;fillColor=none;" vertex="1" parent="1">
          <mxGeometry x="775" y="-92" width="30" height="30" as="geometry" />
        </mxCell>
        <mxCell id="f-9qnYGmFiToQLek4DMe-115" value="1" style="text;html=1;align=center;verticalAlign=middle;resizable=0;points=[];autosize=1;strokeColor=none;fillColor=none;" vertex="1" parent="1">
          <mxGeometry x="655" y="-92" width="30" height="30" as="geometry" />
        </mxCell>
        <mxCell id="f-9qnYGmFiToQLek4DMe-116" value="M" style="text;html=1;align=center;verticalAlign=middle;resizable=0;points=[];autosize=1;strokeColor=none;fillColor=none;" vertex="1" parent="1">
          <mxGeometry x="380" y="-92" width="30" height="30" as="geometry" />
        </mxCell>
        <mxCell id="f-9qnYGmFiToQLek4DMe-117" value="M" style="text;html=1;align=center;verticalAlign=middle;resizable=0;points=[];autosize=1;strokeColor=none;fillColor=none;" vertex="1" parent="1">
          <mxGeometry x="255" y="-92" width="30" height="30" as="geometry" />
        </mxCell>
        <mxCell id="f-9qnYGmFiToQLek4DMe-118" value="1" style="text;html=1;align=center;verticalAlign=middle;resizable=0;points=[];autosize=1;strokeColor=none;fillColor=none;" vertex="1" parent="1">
          <mxGeometry x="1315" y="-182" width="30" height="30" as="geometry" />
        </mxCell>
        <mxCell id="f-9qnYGmFiToQLek4DMe-119" value="1" style="text;html=1;align=center;verticalAlign=middle;resizable=0;points=[];autosize=1;strokeColor=none;fillColor=none;" vertex="1" parent="1">
          <mxGeometry x="1315" y="-102" width="30" height="30" as="geometry" />
        </mxCell>
        <mxCell id="f-9qnYGmFiToQLek4DMe-120" value="" style="endArrow=none;html=1;rounded=0;entryX=1;entryY=0.5;entryDx=0;entryDy=0;" edge="1" parent="1" target="f-9qnYGmFiToQLek4DMe-99">
          <mxGeometry relative="1" as="geometry">
            <mxPoint x="1240" y="-510" as="sourcePoint" />
            <mxPoint x="1440" y="-140" as="targetPoint" />
            <Array as="points">
              <mxPoint x="1440" y="-510" />
              <mxPoint x="1440" y="-130" />
            </Array>
          </mxGeometry>
        </mxCell>
        <mxCell id="f-9qnYGmFiToQLek4DMe-121" value="1" style="text;html=1;align=center;verticalAlign=middle;resizable=0;points=[];autosize=1;strokeColor=none;fillColor=none;" vertex="1" parent="1">
          <mxGeometry x="1365" y="-162" width="30" height="30" as="geometry" />
        </mxCell>
        <mxCell id="f-9qnYGmFiToQLek4DMe-122" value="LOGIN" style="shape=ext;margin=3;double=1;whiteSpace=wrap;html=1;align=center;" vertex="1" parent="1">
          <mxGeometry x="890" y="200" width="100" height="40" as="geometry" />
        </mxCell>
      </root>
    </mxGraphModel>
  </diagram>
</mxfile>
